<svg width="26" height="26" viewBox="0 0 26 26" fill="none" xmlns="http://www.w3.org/2000/svg">
<path d="M10.3989 21.5H1.4209V1.5H20.3744V10.5" stroke="#CFCED3" stroke-width="1.5" stroke-miterlimit="10" stroke-linecap="round" stroke-linejoin="round"/>
<path d="M5.9099 4H3.91479V6H5.9099V4Z" fill="#CFCED3"/>
<path d="M9.90014 4H7.90503V6H9.90014V4Z" fill="#CFCED3"/>
<path d="M17.8806 4H15.8855V6H17.8806V4Z" fill="#CFCED3"/>
<path d="M13.8904 4H11.8953V6H13.8904V4Z" fill="#CFCED3"/>
<path d="M16.8831 4.3125V1.5" stroke="#CFCED3" stroke-width="1.5" stroke-miterlimit="10" stroke-linecap="round"/>
<path d="M12.8928 4.3125V1.5" stroke="#CFCED3" stroke-width="1.5" stroke-miterlimit="10" stroke-linecap="round"/>
<path d="M8.90259 4.3125V1.5" stroke="#CFCED3" stroke-width="1.5" stroke-miterlimit="10" stroke-linecap="round"/>
<path d="M4.91235 4.3125V1.5" stroke="#CFCED3" stroke-width="1.5" stroke-miterlimit="10" stroke-linecap="round"/>
<path d="M18.3794 24.5C21.685 24.5 24.3647 21.8137 24.3647 18.5C24.3647 15.1863 21.685 12.5 18.3794 12.5C15.0738 12.5 12.394 15.1863 12.394 18.5C12.394 21.8137 15.0738 24.5 18.3794 24.5Z" stroke="#CFCED3" stroke-width="1.5" stroke-miterlimit="10"/>
<path d="M15.6859 18.5H21.0727" stroke="#CFCED3" stroke-width="1.5" stroke-miterlimit="10" stroke-linecap="round"/>
<path d="M18.3794 21.1998V15.7998" stroke="#CFCED3" stroke-width="1.5" stroke-miterlimit="10" stroke-linecap="round"/>
</svg>
