<svg width="25" height="25" viewBox="0 0 25 25" fill="none" xmlns="http://www.w3.org/2000/svg">
<path d="M1.72285 2.30859L14.9903 5.60859C16.5864 6.00859 17.8832 7.70859 17.8832 9.30859V21.3086C17.8832 22.9086 16.5864 24.0086 14.9903 23.6086L3.81771 21.0086C2.22163 20.6086 0.924805 19.0086 0.924805 17.3086V4.30859C0.924805 2.70859 2.32138 1.30859 3.91747 1.30859H20.8759C22.472 1.30859 23.8686 2.70859 23.8686 4.30859V15.3086C23.8686 16.9086 22.472 18.3086 20.8759 18.3086H17.8832" stroke="#CFCED3" stroke-width="1.5" stroke-miterlimit="10" stroke-linecap="round" stroke-linejoin="round"/>
<path d="M13.3942 5.21484L19.8783 5.21484" stroke="#CFCED3" stroke-width="1.5" stroke-miterlimit="10" stroke-linecap="round" stroke-linejoin="round"/>
<path d="M13.3942 16.3086C14.4961 16.3086 15.3893 15.4132 15.3893 14.3086C15.3893 13.204 14.4961 12.3086 13.3942 12.3086C12.2923 12.3086 11.3991 13.204 11.3991 14.3086C11.3991 15.4132 12.2923 16.3086 13.3942 16.3086Z" stroke="#CFCED3" stroke-width="1.5" stroke-miterlimit="10" stroke-linecap="round" stroke-linejoin="round"/>
<path d="M17.8832 9.30859H19.8783" stroke="#CFCED3" stroke-width="1.5" stroke-miterlimit="10" stroke-linecap="round" stroke-linejoin="round"/>
</svg>
