<svg width="37" height="29" viewBox="0 0 37 29" fill="none" xmlns="http://www.w3.org/2000/svg">
<g clip-path="url(#clip0)">
<path fill-rule="evenodd" clip-rule="evenodd" d="M35.9054 24.5826L31.6145 29.2225H19.8042L25.0958 -0.210938H35.931L38.7376 3.81392L35.9054 24.5826ZM28.6082 5.04492L25.5905 23.1801H31.4138L34.1292 5.04492H28.6082ZM13.4114 23.8469H7.43758L5.09804 29.2225H0.316528L13.5343 -0.210938H17.9215L18.1571 29.2225H13.394L13.4114 23.8469ZM13.4851 9.95878L9.98813 17.9841H13.4432L13.4851 9.95878Z" fill="url(#paint0_linear)"/>
</g>
<g clip-path="url(#clip1)">
<path fill-rule="evenodd" clip-rule="evenodd" d="M131.341 29.222H126.657L124.473 17.4255H118.841L120.831 29.222H116.129L111.55 -0.211426H122.205L126.303 3.81343L128.005 12.397L127.082 13.9243L128.605 15.4222L131.341 29.222ZM122.181 5.04443H116.751L117.89 11.7941H123.43L122.181 5.04443ZM109.329 11.0909L110.135 16.6979H104.142L104.961 23.1796H112.603L113.497 29.222H101.023L97.6913 -0.211426H109.135L109.914 5.04443H102.669L103.433 11.0909H109.329ZM88.0876 29.222L80.2537 -0.211426H84.5681L89.6147 17.8761L92.0524 -0.211426H96.3506L92.7897 29.222H88.0876ZM83.4378 29.222H70.9804L70.2743 -0.211426H74.5886L75.4579 23.1796H83.0813L83.4378 29.222ZM56.734 29.222L53.2578 24.5821L53.7997 3.81343L57.2044 -0.211426H64.5598L67.9273 3.81343L68.2718 24.5821L64.7522 29.222H56.734ZM63.5807 5.04443H58.1503L57.9166 23.1796H63.6432L63.5807 5.04443ZM41.0784 29.222L37.2717 -0.211426H41.586L44.1577 17.8761L49.0704 -0.211426H53.3686L45.7805 29.222H41.0784ZM28.2039 5.04443L27.5169 11.0909H33.4127L32.8738 16.6979H26.8803L26.1449 23.1796H33.7854L33.2314 29.222H20.7568L24.4869 -0.211426H35.931L35.4485 5.04443H28.2039Z" fill="white"/>
</g>
<defs>
<linearGradient id="paint0_linear" x1="19.5271" y1="-0.210938" x2="19.5271" y2="29.2225" gradientUnits="userSpaceOnUse">
<stop stop-color="#CA3888"/>
<stop offset="1" stop-color="#DA3D4B"/>
</linearGradient>
<clipPath id="clip0">
<rect width="19" height="29" fill="white"/>
</clipPath>
<clipPath id="clip1">
<rect width="17" height="29" fill="white" transform="translate(20)"/>
</clipPath>
</defs>
</svg>
