<svg width="26" height="20" viewBox="0 0 26 20" fill="none" xmlns="http://www.w3.org/2000/svg">
<path d="M1.42578 6H24.3695M24.3695 17C24.3695 18.1 23.4717 19 22.3744 19H3.42089C2.32358 19 1.42578 18.1 1.42578 17V3C1.42578 1.9 2.32358 1 3.42089 1H22.3744C23.4717 1 24.3695 1.9 24.3695 3V17Z" stroke="#CFCED3" stroke-width="1.5" stroke-miterlimit="10" stroke-linecap="round" stroke-linejoin="round"/>
<path d="M5.41601 4.5625C5.96695 4.5625 6.41357 4.11478 6.41357 3.5625C6.41357 3.01022 5.96695 2.5625 5.41601 2.5625C4.86508 2.5625 4.41846 3.01022 4.41846 3.5625C4.41846 4.11478 4.86508 4.5625 5.41601 4.5625Z" fill="#CFCED3"/>
<path d="M8.40869 4.5625C8.95962 4.5625 9.40624 4.11478 9.40624 3.5625C9.40624 3.01022 8.95962 2.5625 8.40869 2.5625C7.85775 2.5625 7.41113 3.01022 7.41113 3.5625C7.41113 4.11478 7.85775 4.5625 8.40869 4.5625Z" fill="#CFCED3"/>
<path d="M11.4014 4.5625C11.9523 4.5625 12.3989 4.11478 12.3989 3.5625C12.3989 3.01022 11.9523 2.5625 11.4014 2.5625C10.8504 2.5625 10.4038 3.01022 10.4038 3.5625C10.4038 4.11478 10.8504 4.5625 11.4014 4.5625Z" fill="#CFCED3"/>
</svg>
