<svg width="150" height="31" viewBox="0 0 150 31" fill="none" xmlns="http://www.w3.org/2000/svg">
<g clip-path="url(#clip0)">
<path fill-rule="evenodd" clip-rule="evenodd" d="M35.9054 25.5826L31.6145 30.2225H19.8042L25.0958 0.789062H35.931L38.7376 4.81392L35.9054 25.5826ZM28.6082 6.04492L25.5905 24.1801H31.4138L34.1292 6.04492H28.6082ZM13.4114 24.8469H7.43758L5.09804 30.2225H0.316528L13.5343 0.789062H17.9215L18.1571 30.2225H13.394L13.4114 24.8469ZM13.4851 10.9588L9.98813 18.9841H13.4432L13.4851 10.9588Z" fill="url(#paint0_linear)"/>
</g>
<g clip-path="url(#clip1)">
<path fill-rule="evenodd" clip-rule="evenodd" d="M149.341 30.222H144.657L142.473 18.4255H136.841L138.831 30.222H134.129L129.55 0.788574H140.205L144.303 4.81343L146.005 13.397L145.082 14.9243L146.605 16.4222L149.341 30.222ZM140.181 6.04443H134.751L135.89 12.7941H141.43L140.181 6.04443ZM127.329 12.0909L128.135 17.6979H122.142L122.961 24.1796H130.603L131.497 30.222H119.023L115.691 0.788574H127.135L127.914 6.04443H120.669L121.433 12.0909H127.329ZM106.088 30.222L98.2537 0.788574H102.568L107.615 18.8761L110.052 0.788574H114.351L110.79 30.222H106.088ZM101.438 30.222H88.9804L88.2743 0.788574H92.5886L93.4579 24.1796H101.081L101.438 30.222ZM74.734 30.222L71.2578 25.5821L71.7997 4.81343L75.2044 0.788574H82.5598L85.9273 4.81343L86.2718 25.5821L82.7522 30.222H74.734ZM81.5807 6.04443H76.1503L75.9166 24.1796H81.6432L81.5807 6.04443ZM59.0784 30.222L55.2717 0.788574H59.586L62.1577 18.8761L67.0704 0.788574H71.3686L63.7805 30.222H59.0784ZM46.2039 6.04443L45.5169 12.0909H51.4127L50.8738 17.6979H44.8803L44.1449 24.1796H51.7854L51.2314 30.222H38.7568L42.4869 0.788574H53.931L53.4485 6.04443H46.2039Z" fill="white"/>
</g>
<defs>
<linearGradient id="paint0_linear" x1="19.5271" y1="0.789062" x2="19.5271" y2="30.2225" gradientUnits="userSpaceOnUse">
<stop stop-color="#CA3888"/>
<stop offset="1" stop-color="#DA3D4B"/>
</linearGradient>
<clipPath id="clip0">
<rect width="38.924" height="29.4304" fill="white" transform="translate(0 0.785156)"/>
</clipPath>
<clipPath id="clip1">
<rect width="110.804" height="29.4304" fill="white" transform="translate(38.7091 0.784668)"/>
</clipPath>
</defs>
</svg>
