<svg width="18" height="19" viewBox="0 0 18 19" fill="none" xmlns="http://www.w3.org/2000/svg">
<path d="M2.74328 0.5C2.56902 0.500093 2.39782 0.545942 2.24673 0.63298C2.09564 0.720018 1.96993 0.84521 1.88211 0.996094L0.136385 3.99609C0.0472147 4.14899 0.000149236 4.32289 0 4.5V16.5C0 17.5931 0.90472 18.5 1.99511 18.5H15.9609C17.0513 18.5 17.956 17.5931 17.956 16.5V4.5C17.9558 4.32289 17.9088 4.14899 17.8196 3.99609L16.0739 0.996094C15.9861 0.845211 15.8604 0.720018 15.7093 0.63298C15.5582 0.545942 15.387 0.500093 15.2127 0.5H2.74328ZM3.31609 2.5H7.98044V4.5H2.15293L3.31609 2.5ZM9.97555 2.5H14.6399L15.8031 4.5H9.97555V2.5ZM5.98533 7.5H11.9707V9.5H5.98533V7.5Z" fill="#A3A4B8"/>
</svg>
