<svg width="21" height="16" viewBox="0 0 21 16" fill="none" xmlns="http://www.w3.org/2000/svg">
<path d="M2.07551 0C0.981242 0 0.0733032 0.906937 0.0733032 2V14C0.0733032 15.0931 0.981242 16 2.07551 16H18.0932C19.1875 16 20.0954 15.0931 20.0954 14V2C20.0954 0.906937 19.1875 0 18.0932 0H2.07551ZM2.07551 2H18.0932V14H2.07551V2ZM3.07662 3V7H5.07883V5H7.08104V3H3.07662ZM13.0877 3V5H15.0899V7H17.0921V3H13.0877ZM3.07662 9V13H7.08104V11H5.07883V9H3.07662ZM15.0899 9V11H13.0877V13H17.0921V9H15.0899Z" fill="#D1D1DB"/>
</svg>
