<svg width="23" height="16" viewBox="0 0 23 16" fill="none" xmlns="http://www.w3.org/2000/svg">
<path d="M11.7914 0C3.81097 0 0.818298 8 0.818298 8C0.818298 8 3.81097 16 11.7914 16C19.7719 16 22.7645 8 22.7645 8C22.7645 8 19.7719 0 11.7914 0ZM11.7914 2C17.0545 2 19.7166 6.26709 20.5785 7.99609C19.7156 9.71309 17.0336 14 11.7914 14C6.52831 14 3.86624 9.73291 3.00435 8.00391C3.86823 6.28691 6.54926 2 11.7914 2ZM11.7914 4C9.58781 4 7.80119 5.791 7.80119 8C7.80119 10.209 9.58781 12 11.7914 12C13.995 12 15.7816 10.209 15.7816 8C15.7816 5.791 13.995 4 11.7914 4ZM11.7914 6C12.8937 6 13.7865 6.895 13.7865 8C13.7865 9.105 12.8937 10 11.7914 10C10.6891 10 9.7963 9.105 9.7963 8C9.7963 6.895 10.6891 6 11.7914 6Z" fill="#797E94"/>
</svg>
